<?xml version="1.0" encoding="utf-8"?>
<!-- Generator: Adobe Illustrator 14.0.0, SVG Export Plug-In . SVG Version: 6.00 Build 43363)  -->
<!DOCTYPE svg PUBLIC "-//W3C//DTD SVG 1.1//EN" "http://www.w3.org/Graphics/SVG/1.1/DTD/svg11.dtd">
<svg version="1.1" id="Logo" xmlns="http://www.w3.org/2000/svg" xmlns:xlink="http://www.w3.org/1999/xlink" x="0px" y="0px"
	 width="20px" height="10px" viewBox="0 0 612 173.794" enable-background="new 0 0 612 173.794" xml:space="preserve">
<g>
	<path fill-rule="evenodd" clip-rule="evenodd" fill="#205E98" d="M258.798,99.181h-12.56l3.588-21.498h14.223
		c5.615,0,15.001,0,13.279,10.311C275.467,99.181,265.028,99.181,258.798,99.181 M273.702,58.403c0,0-42.694,0-45.715,0
		c-0.553,3.262-13.66,82.063-14.214,85.329c2.704,0,22.348,0,25.048,0c0.511-3.031,4.484-26.866,4.484-26.866h18.349
		c21.849,0,36.203-10.889,39.359-29.859C302.668,77.105,299.07,58.403,273.702,58.403z"/>
	<path fill-rule="evenodd" clip-rule="evenodd" fill="#205E98" d="M316.011,115.48l14.561-29.672l2.671-4.873l4.63,34.544H316.011
		 M323.992,58.403c-1.117,2.052-44.265,80.852-46.706,85.329c3.859,0,22.927,0,24.857,0c0.952-1.923,6.23-12.696,6.23-12.696h31.529
		c0,0,1.477,10.729,1.752,12.696c1.981,0,21.878,0,25.737,0c-0.926-4.464-17.478-83.277-17.921-85.329
		C347.538,58.403,325.925,58.403,323.992,58.403z"/>
	<path fill-rule="evenodd" clip-rule="evenodd" fill="#205E98" d="M393.074,122.131v0.013V122.131 M418.857,91.054
		c-10.313-2.496-18.449-4.462-17.883-10.892c0.8-4.813,5.691-7.694,13.059-7.694c2.104,0,6.048,0.325,8.777,2.483
		c2.356,1.698,3.279,4.062,2.979,6.839c2.62,0,20.447,0,23.367,0c1.738-22.091-19.301-25.502-32.3-25.502
		c-16.338,0-36.63,7.226-40.023,27.615c-2.658,15.927,11.126,19.847,24.442,23.64l1.477,0.417
		c15.001,4.328,20.046,5.789,19.038,11.877c-1.214,7.254-8.519,9.827-14.972,9.827c-8.023,0-12.641-2.543-13.744-7.533
		c-0.314-1.422-0.347-3.06-0.204-4.774c-2.47,0-22.143,0-25.064,0c-2.937,27.024,27.587,28.486,33.871,28.486
		c9.584,0,41.18-2.067,45.646-28.857c2.536-15.279-9.001-20.67-20.653-23.938L418.857,91.054z"/>
	<path fill-rule="evenodd" clip-rule="evenodd" fill="#205E98" d="M466.059,143.732c2.699,0,22.347,0,25.051,0
		c0.55-3.296,10.999-66.049,10.999-66.049s22.885,0,25.74,0c0.44-2.723,2.76-16.578,3.196-19.28c-3.044,0-73.463,0-76.511,0
		c-0.443,2.702-2.759,16.557-3.199,19.28c2.84,0,25.726,0,25.726,0S466.608,140.436,466.059,143.732"/>
	<path fill-rule="evenodd" clip-rule="evenodd" fill="#205E98" d="M543.427,122.131c0,0,0,0,0,0.013
		C543.427,122.131,543.427,122.131,543.427,122.131 M577.038,93.047l-7.846-1.993c-10.286-2.496-18.42-4.462-17.869-10.892
		c0.8-4.813,5.683-7.694,13.071-7.694c2.095,0,6.039,0.325,8.784,2.483c2.345,1.698,3.276,4.062,2.946,6.839
		c2.636,0,20.459,0,23.381,0c1.738-22.091-19.298-25.502-32.298-25.502c-16.339,0-36.633,7.226-40.023,27.615
		c-2.646,15.927,11.126,19.847,24.43,23.64l1.474,0.417c15.001,4.328,20.058,5.789,19.055,11.877
		c-1.214,7.254-8.519,9.827-14.972,9.827c-8.023,0-12.644-2.543-13.744-7.533c-0.318-1.422-0.344-3.076-0.208-4.774
		c-2.468,0-22.141,0-25.063,0c-2.921,27.024,27.586,28.486,33.886,28.486c9.568,0,41.18-2.067,45.632-28.857
		C600.228,101.707,588.672,96.315,577.038,93.047z"/>
	<path fill-rule="evenodd" clip-rule="evenodd" fill="#F2C317" d="M41.987,38.603c-15.263,23.964-12.712,79.49-9.61,83.068
		c8.687,10.033,103.024,17.717,137.556,6.043c7.185-3.132,25.2-67.852,17.303-72.623c-4.135-2.511-56.594,28.383-75.312,29.892
		C95.505,86.311,77.153,62.64,52.202,56.848c-3.613-0.842-5.061-4.002-3.613-6.16c1.448-2.142,6.369-3.698,10.66-1.847
		c18.996,8.187,33.899,24.952,44.361,24.75c20.845-0.418,63.28-19.862,86.386-25.905c1.502-0.383,3.956-1.077,4.216,0.282
		c7.942,41.193-11.537,84.649-14.101,86.808c-1.697,1.42-11.993,7.848-81.076,8.247c-16.05,0.103-60.88-3.783-75.065-10.019
		c-3.283-1.433-5.103-16.562-2.069-43.338c2.522-22.399,12.534-56.782,16.986-57.624c50.416-9.324,172.104-4.907,171.261-5.571
		C195.272,14.81,31.975,15.815,27.938,24.857C6.238,73.531,2.984,141.277,8.997,143.95c33.942,15.132,174.558,13.136,183.313-3.147
		c5.21-9.72,18.858-71.054,17.977-101.409C131.72,27.476,44.745,34.256,41.987,38.603"/>
	<polyline fill="#F2C317" points="237.901,26.543 234.178,48.695 246.462,48.695 245.812,52.637 229.27,52.637 233.666,26.543 
		237.901,26.543 	"/>
	<path fill="#F2C317" d="M292.245,42.263l-1.735-11.23h-0.097l-5.556,11.23H292.245 M293.498,26.543l4.921,26.094h-4.536
		l-1.101-6.916h-9.665l-3.432,6.916h-4.368l13.686-26.094H293.498z"/>
	<polyline fill="#F2C317" points="354.583,26.543 353.926,30.485 346.229,30.485 342.509,52.637 338.274,52.637 341.998,30.485 
		334.347,30.485 335.01,26.543 354.583,26.543 	"/>
	<polyline fill="#F2C317" points="391.254,26.543 393.835,47.199 393.903,47.199 403.577,26.543 407.881,26.543 395.208,52.637 
		390.51,52.637 386.845,26.543 391.254,26.543 	"/>
	<polyline fill="#F2C317" points="446.716,26.543 442.315,52.637 438.086,52.637 442.471,26.543 446.716,26.543 	"/>
	<path fill="#F2C317" d="M484.669,53.257c-5.115,0-6.618-3.607-5.802-8.375l0.22-1.376h4.232l-0.221,1.342
		c-0.498,2.958-0.046,4.686,2.536,4.686c2.744,0,3.681-1.803,4.231-5.053l3.021-17.938h4.245l-2.988,17.686
		C493.382,48.768,491.602,53.257,484.669,53.257"/>
	<path fill="#F2C317" d="M544.184,42.263l-1.738-11.23h-0.095l-5.559,11.23H544.184 M545.439,26.543l4.936,26.094h-4.551
		l-1.104-6.916h-9.66l-3.437,6.916h-4.371l13.677-26.094H545.439z"/>
	<path fill="#F2C317" d="M594.282,49.534c3.737,0,5.446-1.98,5.776-3.945c0.347-2.006-0.541-2.822-1.447-3.223
		c-1.573-0.693-3.697-1.164-6.851-2.155c-3.932-1.193-4.701-3.902-4.245-6.622c0.881-5.214,5.773-7.665,10.132-7.665
		c5.057,0,8.81,2.881,7.886,8.333h-4.234c0.36-3.355-1.531-4.596-4.438-4.596c-1.956,0-4.575,0.752-5.02,3.382
		c-0.301,1.834,0.677,2.869,2.319,3.372c0.356,0.12,5.458,1.61,6.644,2.009c3.005,1.021,4.04,3.942,3.584,6.647
		c-0.994,5.852-6.19,8.187-11.002,8.187c-5.515,0-9.513-2.851-8.521-9.323h4.234C588.422,47.955,590.905,49.534,594.282,49.534"/>
</g>
</svg>
